<svg width="120" height="31" viewBox="0 0 120 31" fill="none" xmlns="http://www.w3.org/2000/svg">
<path d="M15.64 19.6V15.04H29.44C29.52 17.1733 29.2667 19.1867 28.68 21.08C28.12 22.9733 27.2267 24.6533 26 26.12C24.8 27.56 23.3067 28.6933 21.52 29.52C19.7333 30.3467 17.6933 30.76 15.4 30.76C13.24 30.76 11.24 30.4 9.4 29.68C7.58667 28.96 6 27.9467 4.64 26.64C3.30667 25.3333 2.26667 23.7733 1.52 21.96C0.8 20.1467 0.44 18.16 0.44 16C0.44 13.84 0.813333 11.8667 1.56 10.08C2.33333 8.26667 3.4 6.72 4.76 5.44C6.12 4.16 7.72 3.17333 9.56 2.48C11.4 1.78667 13.4 1.44 15.56 1.44C17.48 1.44 19.2 1.70667 20.72 2.24C22.2667 2.77333 23.6267 3.52 24.8 4.48C26 5.41333 27.0267 6.53333 27.88 7.84L23 10.68C22.3067 9.45333 21.3333 8.46666 20.08 7.72C18.8533 6.94667 17.3467 6.56 15.56 6.56C13.88 6.56 12.3467 6.94667 10.96 7.72C9.57333 8.46666 8.46667 9.54667 7.64 10.96C6.84 12.3733 6.44 14.0533 6.44 16C6.44 17.92 6.84 19.6133 7.64 21.08C8.44 22.52 9.52 23.64 10.88 24.44C12.2667 25.24 13.8267 25.64 15.56 25.64C16.7067 25.64 17.7333 25.4933 18.64 25.2C19.5467 24.88 20.32 24.44 20.96 23.88C21.6267 23.32 22.1867 22.68 22.64 21.96C23.0933 21.24 23.44 20.4533 23.68 19.6H15.64ZM38.5503 16C38.5503 17.7867 38.9236 19.3733 39.6703 20.76C40.417 22.1467 41.4436 23.24 42.7503 24.04C44.057 24.84 45.577 25.24 47.3103 25.24C49.0436 25.24 50.5636 24.84 51.8703 24.04C53.177 23.24 54.1903 22.1467 54.9103 20.76C55.657 19.3733 56.0303 17.7867 56.0303 16C56.0303 14.2133 55.6703 12.6267 54.9503 11.24C54.2303 9.85333 53.217 8.76 51.9103 7.96C50.6036 7.16 49.0703 6.76 47.3103 6.76C45.577 6.76 44.057 7.16 42.7503 7.96C41.4436 8.76 40.417 9.85333 39.6703 11.24C38.9236 12.6267 38.5503 14.2133 38.5503 16ZM32.5103 16C32.5103 13.8667 32.8836 11.92 33.6303 10.16C34.377 8.37333 35.417 6.82667 36.7503 5.52C38.0836 4.21333 39.6436 3.21333 41.4303 2.52C43.2436 1.8 45.2036 1.44 47.3103 1.44C49.4436 1.44 51.4036 1.8 53.1903 2.52C54.977 3.21333 56.537 4.21333 57.8703 5.52C59.2303 6.82667 60.2703 8.37333 60.9903 10.16C61.737 11.92 62.1103 13.8667 62.1103 16C62.1103 18.1067 61.737 20.0667 60.9903 21.88C60.2703 23.6667 59.2436 25.2267 57.9103 26.56C56.6036 27.8933 55.0436 28.9333 53.2303 29.68C51.4436 30.4 49.4703 30.76 47.3103 30.76C45.1503 30.76 43.1636 30.4 41.3503 29.68C39.5636 28.9333 38.0036 27.8933 36.6703 26.56C35.337 25.2267 34.3103 23.6667 33.5903 21.88C32.8703 20.0667 32.5103 18.1067 32.5103 16ZM72.6922 14.28L70.8922 30H64.9322L69.0922 0.599999L80.8122 18.68L92.5322 0.599999L96.6922 30H90.7322L88.9322 14.28L80.8122 27.4L72.6922 14.28ZM101.181 2H106.981V30H101.181V2ZM113.017 27.64C113.017 26.7333 113.323 25.9733 113.937 25.36C114.577 24.72 115.363 24.4 116.297 24.4C117.257 24.4 118.043 24.72 118.657 25.36C119.27 25.9733 119.577 26.7333 119.577 27.64C119.577 28.4933 119.27 29.24 118.657 29.88C118.043 30.52 117.257 30.84 116.297 30.84C115.363 30.84 114.577 30.52 113.937 29.88C113.323 29.24 113.017 28.4933 113.017 27.64Z" fill="white"/>
</svg>
